<svg width="16" height="16" viewBox="0 0 16 16" fill="none" xmlns="http://www.w3.org/2000/svg">
<path d="M12.3245 15.7508C12.1751 15.7503 12.0261 15.734 11.8801 15.7019C9.10083 15.127 6.54037 13.7789 4.49343 11.813C2.49017 9.84272 1.10081 7.33414 0.493433 4.59077C0.421816 4.24886 0.439394 3.89428 0.544475 3.56113C0.649556 3.22798 0.838605 2.92748 1.09343 2.68855L2.87121 0.977434C2.96201 0.891562 3.0699 0.825803 3.18784 0.784449C3.30578 0.743094 3.43111 0.727074 3.55566 0.737434C3.6848 0.750907 3.80942 0.792507 3.92075 0.859309C4.03209 0.926112 4.12744 1.01649 4.2001 1.1241L6.42232 4.40855C6.50566 4.53599 6.54588 4.68681 6.53708 4.83883C6.52828 4.99084 6.47092 5.13602 6.37343 5.25299L5.25788 6.58632C5.70217 7.56963 6.33136 8.45836 7.11121 9.2041C7.88601 9.9769 8.8018 10.594 9.80899 11.0219L11.1912 9.9241C11.3073 9.83235 11.4486 9.77811 11.5962 9.76858C11.7439 9.75906 11.891 9.7947 12.0179 9.87077L15.3734 12.0397C15.4886 12.1084 15.5867 12.2023 15.6604 12.3144C15.7341 12.4264 15.7815 12.5537 15.799 12.6867C15.8165 12.8196 15.8038 12.9548 15.7616 13.0822C15.7195 13.2095 15.6491 13.3256 15.5557 13.4219L13.8223 15.1374C13.6254 15.3334 13.3917 15.4884 13.1347 15.5937C12.8776 15.6989 12.6023 15.7523 12.3245 15.7508ZM3.48454 1.61743L1.70677 3.32855C1.56341 3.46212 1.45729 3.63071 1.39885 3.81774C1.3404 4.00476 1.33164 4.20378 1.37343 4.39521C1.9382 6.96949 3.23642 9.32512 5.11121 11.1774C7.03752 13.027 9.44704 14.2949 12.0623 14.8352C12.2603 14.8766 12.4654 14.8682 12.6593 14.8108C12.8533 14.7534 13.0299 14.6488 13.1734 14.5063L14.9068 12.7908L11.6668 10.6974L10.1823 11.8797C10.1255 11.9246 10.0585 11.955 9.98726 11.9682C9.91599 11.9814 9.84258 11.9769 9.77343 11.9552C8.54086 11.5011 7.42386 10.7802 6.50232 9.8441C5.54915 8.95397 4.80927 7.8601 4.33788 6.6441C4.31794 6.57049 4.31727 6.49298 4.33595 6.41903C4.35464 6.34508 4.39203 6.27719 4.44454 6.22188L5.64454 4.78632L3.48454 1.61743Z" fill="#7D7D7D"/>
</svg>
