<svg width="16" height="16" viewBox="0 0 16 16" fill="none" xmlns="http://www.w3.org/2000/svg">
<path d="M12.3245 15.7513C12.1751 15.7508 12.0261 15.7344 11.8801 15.7024C9.10083 15.1274 6.54037 13.7794 4.49343 11.8135C2.49017 9.84321 1.10081 7.33463 0.493433 4.59126C0.421816 4.24935 0.439394 3.89477 0.544475 3.56162C0.649556 3.22847 0.838605 2.92797 1.09343 2.68903L2.87121 0.977923C2.96201 0.892051 3.0699 0.826291 3.18784 0.784937C3.30578 0.743583 3.43111 0.727563 3.55566 0.737923C3.6848 0.751395 3.80942 0.792995 3.92075 0.859798C4.03209 0.9266 4.12744 1.01698 4.2001 1.12459L6.42232 4.40903C6.50566 4.53647 6.54588 4.6873 6.53708 4.83931C6.52828 4.99133 6.47092 5.13651 6.37343 5.25348L5.25788 6.58681C5.70217 7.57012 6.33136 8.45884 7.11121 9.20459C7.88601 9.97739 8.8018 10.5945 9.80899 11.0224L11.1912 9.92459C11.3073 9.83284 11.4486 9.7786 11.5962 9.76907C11.7439 9.75954 11.891 9.79518 12.0179 9.87125L15.3734 12.0401C15.4886 12.1089 15.5867 12.2028 15.6604 12.3149C15.7341 12.4269 15.7815 12.5542 15.799 12.6872C15.8165 12.8201 15.8038 12.9553 15.7616 13.0827C15.7195 13.21 15.6491 13.3261 15.5557 13.4224L13.8223 15.1379C13.6254 15.3338 13.3917 15.4889 13.1347 15.5942C12.8776 15.6994 12.6023 15.7528 12.3245 15.7513ZM3.48454 1.61792L1.70677 3.32903C1.56341 3.46261 1.45729 3.6312 1.39885 3.81823C1.3404 4.00525 1.33164 4.20427 1.37343 4.3957C1.9382 6.96998 3.23642 9.32561 5.11121 11.1779C7.03752 13.0275 9.44704 14.2954 12.0623 14.8357C12.2603 14.8771 12.4654 14.8687 12.6593 14.8113C12.8533 14.7539 13.0299 14.6493 13.1734 14.5068L14.9068 12.7913L11.6668 10.6979L10.1823 11.8801C10.1255 11.9251 10.0585 11.9555 9.98726 11.9687C9.91599 11.9819 9.84258 11.9774 9.77343 11.9557C8.54086 11.5016 7.42386 10.7807 6.50232 9.84459C5.54915 8.95446 4.80927 7.86059 4.33788 6.64459C4.31794 6.57097 4.31727 6.49346 4.33595 6.41952C4.35464 6.34557 4.39203 6.27768 4.44454 6.22237L5.64454 4.78681L3.48454 1.61792Z" fill="#CA9546"/>
</svg>
