<svg width="16" height="19" viewBox="0 0 16 19" fill="none" xmlns="http://www.w3.org/2000/svg">
<path d="M8 15.8008C7.45109 15.8008 6.93646 15.7811 6.45435 15.7412L4.14935 18.5595C3.9743 18.7735 3.63636 18.6455 3.63636 18.3651V15.149C0.922363 14.0922 0 11.7287 0 7.90042C0 2.48437 1.84615 0 8 0C14.1538 0 16 2.48437 16 7.90042C16 13.3165 14.1538 15.8008 8 15.8008Z" fill="#CA9546"/>
<mask id="path-2-inside-1_301_1101" fill="white">
<path d="M8.51597 2.6665C8.32593 2.6665 8.17188 2.82056 8.17188 3.01059C8.17188 3.20062 8.32593 3.35468 8.51597 3.35468C10.7964 3.35468 12.645 5.20331 12.645 7.48371C12.645 7.67374 12.7991 7.82779 12.9891 7.82779C13.1791 7.82779 13.3332 7.67374 13.3332 7.48371C13.3332 4.82324 11.1764 2.6665 8.51597 2.6665Z"/>
<path d="M4.11137 3.78907C4.30641 3.68882 4.64993 3.63801 4.84682 3.82144C5.09294 4.05073 5.47225 4.45268 5.73284 4.80336C5.99344 5.15405 6.35827 5.68818 6.41039 5.80687C6.4625 5.92556 6.52041 6.34639 6.25982 6.59996C6.05134 6.80282 5.77917 6.98302 5.66914 7.04777C5.56683 7.13769 5.39928 7.40169 5.54753 7.73835C5.73284 8.15918 6.13242 8.98464 6.82155 9.59969C7.51067 10.2147 8.24033 10.5385 8.69782 10.641C8.72691 10.641 8.76429 10.6479 8.8076 10.656C8.96259 10.6848 9.19358 10.7277 9.39274 10.5169C9.59658 10.3011 9.78266 10.0745 9.85023 9.98815C9.95639 9.87305 10.2649 9.67738 10.6494 9.8155C11.13 9.98815 11.6802 10.3658 11.9292 10.5439C12.1284 10.6863 12.572 11.024 12.7689 11.1751C12.8886 11.2668 13.0885 11.5398 12.931 11.898C12.7341 12.3458 11.8944 13.3332 11.1416 13.3332C10.8637 13.3332 8.17663 12.5724 5.80233 10.4252C4.28571 9.05355 2.9802 6.6737 2.75628 5.87161C2.67135 5.68098 2.57097 5.21124 2.84894 4.85732C3.1269 4.50339 3.43962 4.13436 4.11137 3.78907Z"/>
<path d="M8.51597 5.41919C8.32593 5.41919 8.17188 5.57324 8.17188 5.76328C8.17188 5.95331 8.32593 6.10736 8.51597 6.10736C9.2761 6.10736 9.89231 6.72357 9.89231 7.48371C9.89231 7.67374 10.0464 7.82779 10.2364 7.82779C10.4264 7.82779 10.5805 7.67374 10.5805 7.48371C10.5805 6.34351 9.65617 5.41919 8.51597 5.41919Z"/>
<path d="M8.17188 4.38693C8.17188 4.1969 8.32593 4.04285 8.51597 4.04285C10.4163 4.04285 11.9568 5.58337 11.9568 7.48371C11.9568 7.67374 11.8028 7.82779 11.6127 7.82779C11.4227 7.82779 11.2687 7.67374 11.2687 7.48371C11.2687 5.96344 10.0362 4.73102 8.51597 4.73102C8.32593 4.73102 8.17188 4.57697 8.17188 4.38693Z"/>
</mask>
<path d="M8.51597 2.6665C8.32593 2.6665 8.17188 2.82056 8.17188 3.01059C8.17188 3.20062 8.32593 3.35468 8.51597 3.35468C10.7964 3.35468 12.645 5.20331 12.645 7.48371C12.645 7.67374 12.7991 7.82779 12.9891 7.82779C13.1791 7.82779 13.3332 7.67374 13.3332 7.48371C13.3332 4.82324 11.1764 2.6665 8.51597 2.6665Z" fill="white"/>
<path d="M4.11137 3.78907C4.30641 3.68882 4.64993 3.63801 4.84682 3.82144C5.09294 4.05073 5.47225 4.45268 5.73284 4.80336C5.99344 5.15405 6.35827 5.68818 6.41039 5.80687C6.4625 5.92556 6.52041 6.34639 6.25982 6.59996C6.05134 6.80282 5.77917 6.98302 5.66914 7.04777C5.56683 7.13769 5.39928 7.40169 5.54753 7.73835C5.73284 8.15918 6.13242 8.98464 6.82155 9.59969C7.51067 10.2147 8.24033 10.5385 8.69782 10.641C8.72691 10.641 8.76429 10.6479 8.8076 10.656C8.96259 10.6848 9.19358 10.7277 9.39274 10.5169C9.59658 10.3011 9.78266 10.0745 9.85023 9.98815C9.95639 9.87305 10.2649 9.67738 10.6494 9.8155C11.13 9.98815 11.6802 10.3658 11.9292 10.5439C12.1284 10.6863 12.572 11.024 12.7689 11.1751C12.8886 11.2668 13.0885 11.5398 12.931 11.898C12.7341 12.3458 11.8944 13.3332 11.1416 13.3332C10.8637 13.3332 8.17663 12.5724 5.80233 10.4252C4.28571 9.05355 2.9802 6.6737 2.75628 5.87161C2.67135 5.68098 2.57097 5.21124 2.84894 4.85732C3.1269 4.50339 3.43962 4.13436 4.11137 3.78907Z" fill="black"/>
<path d="M8.51597 5.41919C8.32593 5.41919 8.17188 5.57324 8.17188 5.76328C8.17188 5.95331 8.32593 6.10736 8.51597 6.10736C9.2761 6.10736 9.89231 6.72357 9.89231 7.48371C9.89231 7.67374 10.0464 7.82779 10.2364 7.82779C10.4264 7.82779 10.5805 7.67374 10.5805 7.48371C10.5805 6.34351 9.65617 5.41919 8.51597 5.41919Z" fill="white"/>
<path d="M8.17188 4.38693C8.17188 4.1969 8.32593 4.04285 8.51597 4.04285C10.4163 4.04285 11.9568 5.58337 11.9568 7.48371C11.9568 7.67374 11.8028 7.82779 11.6127 7.82779C11.4227 7.82779 11.2687 7.67374 11.2687 7.48371C11.2687 5.96344 10.0362 4.73102 8.51597 4.73102C8.32593 4.73102 8.17188 4.57697 8.17188 4.38693Z" fill="white"/>
<path d="M4.84682 3.82144L4.16517 4.55312L4.16517 4.55312L4.84682 3.82144ZM4.11137 3.78907L3.65422 2.89968L3.65421 2.89969L4.11137 3.78907ZM5.73284 4.80336L6.53549 4.20692L6.53549 4.20692L5.73284 4.80336ZM6.25982 6.59996L5.56243 5.88327L5.56243 5.88327L6.25982 6.59996ZM5.66914 7.04777L5.16201 6.1859L5.08023 6.23401L5.00897 6.29665L5.66914 7.04777ZM5.54753 7.73835L4.63233 8.14136H4.63233L5.54753 7.73835ZM6.82155 9.59969L7.48742 8.85363L7.48742 8.85363L6.82155 9.59969ZM8.69782 10.641L8.47917 11.6168L8.58716 11.641H8.69782V10.641ZM8.8076 10.656L8.62482 11.6391L8.62483 11.6391L8.8076 10.656ZM9.39274 10.5169L10.1197 11.2035L10.1197 11.2035L9.39274 10.5169ZM9.85023 9.98815L9.11518 9.31013L9.08771 9.33991L9.06274 9.37182L9.85023 9.98815ZM10.6494 9.8155L10.9874 8.87437L10.9874 8.87437L10.6494 9.8155ZM11.9292 10.5439L12.5108 9.73039H12.5108L11.9292 10.5439ZM12.7689 11.1751L12.1602 11.9685L12.1606 11.9688L12.7689 11.1751ZM12.931 11.898L13.8464 12.3005V12.3005L12.931 11.898ZM5.80233 10.4252L5.13157 11.1668L5.13157 11.1668L5.80233 10.4252ZM2.75628 5.87161L3.71945 5.60272L3.69966 5.53185L3.66972 5.46464L2.75628 5.87161ZM2.84894 4.85732L3.63538 5.47498L3.63538 5.47498L2.84894 4.85732ZM9.17188 3.01059C9.17188 3.37284 8.87822 3.6665 8.51597 3.6665V1.6665C7.77365 1.6665 7.17188 2.26827 7.17188 3.01059H9.17188ZM8.51597 2.35468C8.87822 2.35468 9.17188 2.64834 9.17188 3.01059H7.17188C7.17188 3.75291 7.77365 4.35468 8.51597 4.35468V2.35468ZM13.645 7.48371C13.645 4.65102 11.3487 2.35468 8.51597 2.35468V4.35468C10.2441 4.35468 11.645 5.75559 11.645 7.48371H13.645ZM12.9891 6.82779C13.3513 6.82779 13.645 7.12146 13.645 7.48371H11.645C11.645 8.22603 12.2468 8.82779 12.9891 8.82779V6.82779ZM12.3332 7.48371C12.3332 7.12146 12.6268 6.82779 12.9891 6.82779V8.82779C13.7314 8.82779 14.3332 8.22603 14.3332 7.48371H12.3332ZM8.51597 3.6665C10.6242 3.6665 12.3332 5.37552 12.3332 7.48371H14.3332C14.3332 4.27096 11.7287 1.6665 8.51597 1.6665V3.6665ZM5.52848 3.08977C5.17644 2.7618 4.75158 2.69406 4.46131 2.69902C4.16806 2.70403 3.88335 2.78191 3.65422 2.89968L4.56852 4.67846C4.54493 4.69058 4.53177 4.69406 4.52804 4.69502C4.52357 4.69615 4.51358 4.69842 4.49549 4.69873C4.47497 4.69908 4.32031 4.69765 4.16517 4.55312L5.52848 3.08977ZM6.53549 4.20692C6.23066 3.79669 5.80777 3.34997 5.52848 3.08977L4.16517 4.55312C4.3781 4.7515 4.71383 5.10866 4.93019 5.39981L6.53549 4.20692ZM7.326 5.40482C7.27782 5.29509 7.20338 5.17665 7.1648 5.11553C7.11132 5.03081 7.04614 4.93221 6.97752 4.83099C6.84024 4.62848 6.67552 4.39535 6.53549 4.20692L4.93019 5.39981C5.05076 5.56206 5.19875 5.77134 5.32206 5.95324C5.38374 6.04422 5.43583 6.12333 5.47356 6.1831C5.49257 6.21321 5.50508 6.23392 5.51219 6.24617C5.524 6.2665 5.51187 6.24788 5.49477 6.20892L7.326 5.40482ZM6.95721 7.31666C7.31971 6.96392 7.42655 6.52927 7.44947 6.22894C7.47077 5.94991 7.4313 5.64463 7.326 5.40482L5.49477 6.20892C5.47393 6.16147 5.46467 6.12752 5.46163 6.11581C5.45771 6.1007 5.45626 6.09157 5.45578 6.08824C5.45499 6.08284 5.45497 6.08073 5.45527 6.07673C5.45556 6.07289 5.45737 6.05172 5.47055 6.01837C5.48478 5.98233 5.51278 5.93158 5.56243 5.88327L6.95721 7.31666ZM6.17628 7.90963C6.32663 7.82116 6.67161 7.59457 6.95721 7.31666L5.56243 5.88327C5.5036 5.94052 5.42385 6.00545 5.3391 6.06713C5.25491 6.12841 5.18646 6.17151 5.16201 6.1859L6.17628 7.90963ZM6.46273 7.33534C6.49172 7.40118 6.49941 7.49807 6.47143 7.59044C6.45959 7.62953 6.44296 7.66302 6.4241 7.69197C6.40706 7.71814 6.37841 7.75573 6.32931 7.79888L5.00897 6.29665C4.67912 6.58656 4.25997 7.29576 4.63233 8.14136L6.46273 7.33534ZM7.48742 8.85363C6.96562 8.38792 6.63608 7.72902 6.46273 7.33534L4.63233 8.14136C4.8296 8.58933 5.29921 9.58136 6.15567 10.3458L7.48742 8.85363ZM8.91647 9.66516C8.63572 9.60226 8.05777 9.36268 7.48742 8.85363L6.15567 10.3458C6.96357 11.0668 7.84494 11.4747 8.47917 11.6168L8.91647 9.66516ZM8.99037 9.67281C8.9832 9.67148 8.84048 9.64097 8.69782 9.64097V11.641C8.66638 11.641 8.64197 11.6391 8.6276 11.6378C8.61293 11.6364 8.60295 11.635 8.59985 11.6345C8.59663 11.634 8.59646 11.6339 8.60149 11.6348C8.60682 11.6358 8.61317 11.637 8.62482 11.6391L8.99037 9.67281ZM8.66577 9.83021C8.69603 9.79817 8.74216 9.76112 8.80392 9.73127C8.86476 9.70186 8.92216 9.6884 8.96661 9.68316C9.00845 9.67823 9.03555 9.68096 9.03859 9.68127C9.04046 9.68147 9.03846 9.68133 9.03035 9.68C9.0212 9.67851 9.01102 9.67665 8.99036 9.67281L8.62483 11.6391C8.767 11.6656 9.51978 11.8387 10.1197 11.2035L8.66577 9.83021ZM9.06274 9.37182C9.01009 9.43908 8.84418 9.64132 8.66577 9.83021L10.1197 11.2035C10.349 10.9608 10.5552 10.7099 10.6377 10.6045L9.06274 9.37182ZM10.9874 8.87437C10.111 8.55958 9.40112 9.00014 9.11518 9.31013L10.5853 10.6662C10.5492 10.7053 10.5225 10.724 10.5104 10.7319C10.4956 10.7415 10.4797 10.7496 10.461 10.7558C10.4412 10.7623 10.4156 10.7677 10.3857 10.768C10.3544 10.7683 10.3283 10.7627 10.3113 10.7566L10.9874 8.87437ZM12.5108 9.73039C12.2681 9.55685 11.6149 9.09977 10.9874 8.87437L10.3113 10.7566C10.4612 10.8105 10.654 10.9096 10.8589 11.0335C11.0567 11.1531 11.2333 11.2756 11.3476 11.3573L12.5108 9.73039ZM13.3776 10.3817C13.1841 10.2333 12.7264 9.88454 12.5108 9.73039L11.3476 11.3573C11.5304 11.488 11.9599 11.8148 12.1602 11.9685L13.3776 10.3817ZM13.8464 12.3005C14.2517 11.3789 13.7237 10.6469 13.3772 10.3814L12.1606 11.9688C12.1131 11.9324 12.0848 11.9002 12.0673 11.877C12.0481 11.8514 12.0289 11.8191 12.0141 11.7783C11.9986 11.7358 11.988 11.684 11.9892 11.6271C11.9903 11.5687 12.0035 11.5231 12.0156 11.4955L13.8464 12.3005ZM11.1416 14.3332C11.9096 14.3332 12.5484 13.8636 12.9224 13.519C13.3208 13.1519 13.6775 12.6848 13.8464 12.3005L12.0156 11.4955C12.0157 11.4953 12.0131 11.5012 12.0064 11.5136C11.9999 11.5258 11.9907 11.5419 11.9784 11.5616C11.9536 11.6016 11.9201 11.6508 11.878 11.7062C11.7929 11.8182 11.6852 11.9394 11.5672 12.0481C11.4472 12.1587 11.3349 12.2395 11.2425 12.2885C11.1462 12.3396 11.1155 12.3332 11.1416 12.3332V14.3332ZM5.13157 11.1668C6.4116 12.3245 7.76935 13.1034 8.84238 13.5939C9.38006 13.8397 9.85334 14.0162 10.2195 14.1333C10.4021 14.1916 10.5637 14.237 10.6976 14.269C10.7941 14.292 10.9737 14.3332 11.1416 14.3332V12.3332C11.24 12.3332 11.2749 12.3506 11.1619 12.3236C11.0865 12.3056 10.974 12.2747 10.8284 12.2282C10.5384 12.1355 10.1394 11.9877 9.67382 11.7749C8.74028 11.3482 7.56737 10.6731 6.47309 9.68349L5.13157 11.1668ZM1.79311 6.1405C1.94468 6.68343 2.3895 7.57727 2.94755 8.46641C3.51782 9.37503 4.27963 10.3963 5.13157 11.1668L6.47309 9.68349C5.80842 9.08236 5.15916 8.22795 4.64154 7.40322C4.11169 6.559 3.7918 5.86188 3.71945 5.60272L1.79311 6.1405ZM2.06249 4.23965C1.7471 4.64122 1.66475 5.08776 1.66653 5.4309C1.66827 5.76423 1.74795 6.06561 1.84284 6.27859L3.66972 5.46464C3.67477 5.47598 3.67617 5.48076 3.67549 5.47868C3.67498 5.4771 3.67354 5.47234 3.67192 5.46508C3.67032 5.4579 3.66891 5.44988 3.66792 5.44163C3.66694 5.43338 3.66654 5.42622 3.66651 5.4205C3.66644 5.40799 3.66812 5.4085 3.66492 5.41942C3.66319 5.42532 3.66012 5.4339 3.65497 5.44414C3.64973 5.45456 3.64312 5.46512 3.63538 5.47498L2.06249 4.23965ZM3.65421 2.89969C2.80094 3.33828 2.38269 3.83196 2.06249 4.23965L3.63538 5.47498C3.87111 5.17482 4.07831 4.93044 4.56852 4.67846L3.65421 2.89969ZM9.17188 5.76328C9.17188 6.12553 8.87822 6.41919 8.51597 6.41919V4.41919C7.77365 4.41919 7.17188 5.02096 7.17188 5.76328H9.17188ZM8.51597 5.10736C8.87822 5.10736 9.17188 5.40103 9.17188 5.76328H7.17188C7.17188 6.5056 7.77365 7.10736 8.51597 7.10736V5.10736ZM10.8923 7.48371C10.8923 6.17129 9.82839 5.10736 8.51597 5.10736V7.10736C8.72382 7.10736 8.89231 7.27586 8.89231 7.48371H10.8923ZM10.2364 6.82779C10.5986 6.82779 10.8923 7.12146 10.8923 7.48371H8.89231C8.89231 8.22603 9.49408 8.82779 10.2364 8.82779V6.82779ZM9.58048 7.48371C9.58048 7.12146 9.87415 6.82779 10.2364 6.82779V8.82779C10.9787 8.82779 11.5805 8.22603 11.5805 7.48371H9.58048ZM8.51597 6.41919C9.10388 6.41919 9.58048 6.89579 9.58048 7.48371H11.5805C11.5805 5.79122 10.2085 4.41919 8.51597 4.41919V6.41919ZM8.51597 3.04285C7.77365 3.04285 7.17188 3.64461 7.17188 4.38693H9.17188C9.17188 4.74919 8.87822 5.04285 8.51597 5.04285V3.04285ZM12.9568 7.48371C12.9568 5.03109 10.9686 3.04285 8.51597 3.04285V5.04285C9.86402 5.04285 10.9568 6.13566 10.9568 7.48371H12.9568ZM11.6127 8.82779C12.3551 8.82779 12.9568 8.22603 12.9568 7.48371H10.9568C10.9568 7.12146 11.2505 6.82779 11.6127 6.82779V8.82779ZM10.2687 7.48371C10.2687 8.22603 10.8704 8.82779 11.6127 8.82779V6.82779C11.975 6.82779 12.2687 7.12146 12.2687 7.48371H10.2687ZM8.51597 5.73102C9.48395 5.73102 10.2687 6.51573 10.2687 7.48371H12.2687C12.2687 5.41116 10.5885 3.73102 8.51597 3.73102V5.73102ZM7.17188 4.38693C7.17188 5.12925 7.77365 5.73102 8.51597 5.73102V3.73102C8.87822 3.73102 9.17188 4.02468 9.17188 4.38693H7.17188Z" fill="black" mask="url(#path-2-inside-1_301_1101)"/>
</svg>
