<svg width="22" height="22" viewBox="0 0 22 22" fill="none" xmlns="http://www.w3.org/2000/svg">
<path d="M19.25 11C19.25 15.5563 15.5563 19.25 11 19.25C9.26211 19.25 7.64973 18.7126 6.31995 17.795L3.5 18.5L4.23896 15.7289C3.30064 14.3898 2.75 12.7592 2.75 11C2.75 6.44365 6.44365 2.75 11 2.75C15.5563 2.75 19.25 6.44365 19.25 11Z" fill="#CA9546"/>
<path d="M8.59377 6.5312C8.36492 6.07156 8.01386 6.11225 7.65921 6.11225C7.0254 6.11225 6.03711 6.87144 6.03711 8.28437C6.03711 9.44235 6.54737 10.7099 8.26679 12.6061C9.92615 14.4361 12.1065 15.3827 13.9165 15.3505C15.7266 15.3183 16.099 13.7606 16.099 13.2346C16.099 13.0015 15.9543 12.8851 15.8546 12.8535C15.2378 12.5575 14.1002 12.0059 13.8413 11.9023C13.5825 11.7987 13.4473 11.9388 13.3633 12.0151C13.1286 12.2388 12.6632 12.8981 12.5039 13.0464C12.3446 13.1946 12.1071 13.1196 12.0082 13.0635C11.6445 12.9176 10.6583 12.4789 9.87213 11.7168C8.89991 10.7744 8.84285 10.4501 8.65968 10.1615C8.51315 9.93059 8.62068 9.78891 8.67433 9.727C8.8838 9.4853 9.17304 9.11215 9.30275 8.92671C9.43246 8.74127 9.32949 8.45973 9.2677 8.28438C9.00197 7.53023 8.77684 6.89892 8.59377 6.5312Z" fill="black"/>
</svg>
